<svg width="26" height="26" viewBox="0 0 26 26" fill="none" xmlns="http://www.w3.org/2000/svg">
<path d="M5.17969 0.0964394C4.28086 0.380814 3.5293 1.02066 3.12813 1.83824C2.7168 2.67105 2.74219 1.82808 2.74219 12.9492C2.74219 24.0703 2.7168 23.2273 3.12813 24.0601C3.45313 24.7253 3.96602 25.2382 4.63125 25.5632C5.45391 25.9695 4.93594 25.9492 13.0152 25.9492C19.3984 25.9492 20.2617 25.939 20.607 25.8679C21.8715 25.6089 22.9176 24.6035 23.2426 23.3441C23.3289 22.9937 23.334 22.5976 23.334 15.0515V7.12457L23.1867 6.9316C22.9684 6.64722 16.7223 0.111673 16.6105 0.0507355C16.5445 0.0151882 14.6859 -4.57764e-05 10.984 0.00503159C5.85508 0.00503159 5.43867 0.0101109 5.17969 0.0964394ZM15.6914 3.36167C15.6914 5.73824 15.7117 5.90582 16.0063 6.46441C16.3211 7.05347 16.8441 7.50542 17.4992 7.75933L17.8496 7.89644L19.9723 7.91167L22.0898 7.92691V15.28C22.0898 20.0687 22.0695 22.7296 22.0391 22.9074C21.8867 23.7097 21.2875 24.3699 20.5004 24.6035C20.277 24.6695 19.3324 24.6796 13.0457 24.6796C6.01758 24.6796 5.84492 24.6796 5.525 24.5781C4.86992 24.375 4.31641 23.8214 4.11328 23.1664C4.01172 22.8464 4.01172 22.6687 4.01172 12.9492C4.01172 3.18394 4.01172 3.05191 4.11328 2.72691C4.31133 2.08199 4.86485 1.52847 5.51485 1.32027C5.79922 1.22886 6.0582 1.22378 10.7555 1.22378L15.6914 1.2187V3.36167ZM19.373 4.72261L21.1809 6.62691L19.6473 6.64214C18.1289 6.6523 18.1137 6.6523 17.8547 6.5355C17.5043 6.373 17.2656 6.15464 17.1133 5.85503C16.9863 5.61128 16.9863 5.6062 16.9711 3.91011L16.9559 2.20894L17.2605 2.51363C17.4281 2.6812 18.3777 3.67652 19.373 4.72261Z" fill="white"/>
<path d="M12.7614 8.69375C12.6344 8.76484 11.8321 9.59258 10.6692 10.8367C9.17619 12.4465 8.7801 12.8984 8.75471 13.0355C8.71409 13.259 8.82073 13.5434 8.99846 13.6754C9.15588 13.7922 9.48088 13.8125 9.65862 13.7211C9.72971 13.6805 10.3645 13.0254 11.0754 12.2586L12.3653 10.8672L12.3906 14.3609C12.411 17.0168 12.4313 17.875 12.477 17.9613C12.5887 18.1543 12.8223 18.2812 13.061 18.2812C13.2996 18.2762 13.4266 18.2051 13.5688 17.9918C13.6551 17.8598 13.6602 17.6516 13.6602 14.3559C13.6602 12.4363 13.6754 10.8672 13.7008 10.8723C13.7211 10.8723 14.3203 11.507 15.0313 12.2738C15.8996 13.2133 16.3821 13.7008 16.5039 13.7465C16.8746 13.9039 17.3164 13.5992 17.3164 13.1879C17.3114 13.0711 17.286 12.9289 17.2504 12.868C17.1184 12.6344 13.4317 8.73438 13.2742 8.6582C13.061 8.55664 13 8.56172 12.7614 8.69375Z" fill="#F65D25"/>
<path d="M7.58673 20.4444C7.10431 20.6831 7.18556 21.4296 7.7086 21.5819C7.84064 21.6226 9.49103 21.6327 13.1524 21.6226C18.2152 21.6073 18.4133 21.6022 18.5504 21.5108C18.8348 21.3179 18.916 20.9726 18.7383 20.6831C18.5352 20.3429 18.8906 20.3632 13.0406 20.3632C8.4297 20.3632 7.72384 20.3733 7.58673 20.4444Z" fill="#F65D25"/>
</svg>
