<svg width="24" height="22" viewBox="0 0 24 22" fill="none" xmlns="http://www.w3.org/2000/svg">
<path opacity="0.992" fill-rule="evenodd" clip-rule="evenodd" d="M0 20.346C0 17.596 0 14.846 0 12.096C0.0831797 10.6656 0.278492 9.24373 0.585938 7.8304C1.22153 5.47676 2.49497 3.54706 4.40625 2.04134C5.48864 1.19551 6.67613 0.523627 7.96875 0.0257158C8.44256 -0.0610545 8.841 0.0717611 9.16406 0.424153C9.53545 1.15132 9.89484 1.8857 10.2422 2.62728C10.4722 3.23064 10.3394 3.73845 9.84375 4.15072C8.50997 4.66428 7.39275 5.46898 6.49219 6.56478C5.58877 7.97464 5.14345 9.52151 5.15625 11.2054C6.3907 11.1976 7.62511 11.2054 8.85938 11.2288C9.32756 11.2912 9.66352 11.5334 9.86719 11.9554C9.92133 13.3667 9.94477 14.7808 9.9375 16.1976C9.92967 17.5648 9.92189 18.932 9.91406 20.2992C9.78164 20.744 9.49261 21.0331 9.04688 21.1663C6.32813 21.1976 3.60938 21.1976 0.890625 21.1663C0.45178 21.0417 0.154905 20.7682 0 20.346Z" fill="#F65D25"/>
<path opacity="0.992" fill-rule="evenodd" clip-rule="evenodd" d="M24 2.81485C24 3.03361 24 3.25235 24 3.4711C23.9134 3.71364 23.7728 3.92457 23.5781 4.10392C22.662 4.4904 21.8182 4.99042 21.0469 5.60392C19.7811 6.80453 19.0702 8.28109 18.9141 10.0336C18.8614 10.4225 18.838 10.8131 18.8438 11.2055C20.0782 11.1977 21.3126 11.2055 22.5469 11.2289C23.0151 11.2913 23.351 11.5335 23.5547 11.9555C23.6323 14.7497 23.6479 17.5465 23.6016 20.3461C23.4488 20.7646 23.1597 21.038 22.7344 21.1664C20.0156 21.1977 17.2969 21.1977 14.5781 21.1664C14.1433 21.0467 13.8542 20.7733 13.7109 20.3461C13.6797 17.5805 13.6797 14.8149 13.7109 12.0492C13.7613 10.4277 13.9957 8.83393 14.4141 7.26798C15.2059 4.94509 16.6044 3.0779 18.6094 1.66642C19.4798 1.06697 20.4016 0.55134 21.375 0.119541C21.9467 -0.0910492 22.4388 0.0261383 22.8516 0.471104C23.2493 1.25089 23.6321 2.03214 24 2.81485Z" fill="#F65D25"/>
</svg>
