<svg width="80" height="80" viewBox="0 0 80 80" fill="none" xmlns="http://www.w3.org/2000/svg">
<path d="M0 8C0 3.58172 3.58172 0 8 0H72C76.4183 0 80 3.58172 80 8V72C80 76.4183 76.4183 80 72 80H8C3.58172 80 0 76.4183 0 72V8Z" fill="url(#paint0_linear_1598_12)"/>
<path d="M27.7373 53.7137L25 23H55.0885L52.3475 53.7088L40.026 57.125L27.7373 53.7137Z" fill="#1572B6"/>
<path d="M40.0443 54.5146L50.0015 51.7541L52.3439 25.512H40.0443V54.5146Z" fill="#33A9DC"/>
<path d="M40.0443 36.6389H45.029L45.3727 32.7816H40.0443V29.0144H49.4896L49.3994 30.0247L48.4744 40.4061H40.0443V36.6389V36.6389Z" fill="white"/>
<path d="M40.0674 46.4221L40.0504 46.427L35.8554 45.2935L35.5873 42.2893H31.8055L32.3333 48.2039L40.0492 50.3465L40.0674 50.3416V46.4221V46.4221Z" fill="#EBEBEB"/>
<path d="M44.7085 40.2466L44.2551 45.291L40.0541 46.4244V50.3439L47.7761 48.2038L47.8334 47.5676L48.4878 40.2466H44.7085V40.2466Z" fill="white"/>
<path d="M40.0576 29.0144V32.7816H30.9584L30.8829 31.9345L30.711 30.0247L30.6208 29.0144H40.0576V29.0144ZM40.0442 36.6389V40.4061H35.9017L35.8261 39.559L35.6555 37.6492L35.5653 36.6389H40.0442V36.6389Z" fill="#EBEBEB"/>
<defs>
<linearGradient id="paint0_linear_1598_12" x1="40" y1="0" x2="40" y2="91.5" gradientUnits="userSpaceOnUse">
<stop stop-color="#2A2B2F"/>
<stop offset="1" stop-color="#15161D"/>
</linearGradient>
</defs>
</svg>
