<svg width="80" height="80" viewBox="0 0 80 80" fill="none" xmlns="http://www.w3.org/2000/svg">
<path d="M0 8C0 3.58172 3.58172 0 8 0H72C76.4183 0 80 3.58172 80 8V72C80 76.4183 76.4183 80 72 80H8C3.58172 80 0 76.4183 0 72V8Z" fill="url(#paint0_linear_1598_11)"/>
<path d="M27.3774 54.0013L24.5687 22.5H55.4312L52.6187 53.9963L39.9812 57.5L27.3774 54.0013Z" fill="#E44F26"/>
<path d="M40 54.8225L50.2125 51.9913L52.615 25.0763H40V54.8225Z" fill="#F1662A"/>
<path d="M40 36.7587H34.8875L34.535 32.8025H40V28.9387H30.3125L30.405 29.9762L31.3537 40.6225H40V36.7587V36.7587ZM40 46.7925L39.9825 46.7975L35.68 45.6362L35.405 42.555H31.5262L32.0675 48.62L39.9825 50.8175L40 50.8125V46.7925Z" fill="#EBEBEB"/>
<path d="M39.9862 36.7587V40.6225H44.7437L44.2962 45.6337L39.9862 46.7962V50.8162L47.9075 48.62L47.965 47.9675L48.8725 37.7962L48.9675 36.7587H39.9862V36.7587ZM39.9862 28.9387V32.8025H49.3187L49.3962 31.935L49.5725 29.9762L49.665 28.9387H39.9862V28.9387Z" fill="white"/>
<defs>
<linearGradient id="paint0_linear_1598_11" x1="40" y1="0" x2="40" y2="91.5" gradientUnits="userSpaceOnUse">
<stop stop-color="#2A2B2F"/>
<stop offset="1" stop-color="#15161D"/>
</linearGradient>
</defs>
</svg>
