<svg width="25" height="18" viewBox="0 0 25 18" fill="none" xmlns="http://www.w3.org/2000/svg">
<path d="M14.874 11.9383C15.1842 12.5672 15.6656 13.0958 16.2628 13.4634C16.86 13.8309 17.5488 14.0226 18.25 14.0163C19.668 14.0163 20.574 13.3073 20.574 12.3283C20.574 11.1553 19.643 10.7393 18.083 10.0563L17.227 9.68927C14.758 8.63727 13.117 7.31927 13.117 4.53327C13.117 1.96627 15.073 0.0132656 18.129 0.0132656C19.1208 -0.0587038 20.1119 0.163304 20.9783 0.651532C21.8446 1.13976 22.5478 1.87254 23 2.75827L20.335 4.46927C20.1605 4.03036 19.8566 3.65495 19.4636 3.39292C19.0707 3.13088 18.6073 2.99463 18.135 3.00227C17.9292 2.98155 17.7212 3.00397 17.5245 3.06807C17.3278 3.13218 17.1467 3.23657 16.9925 3.3746C16.8384 3.51262 16.7148 3.68125 16.6294 3.86973C16.5441 4.0582 16.499 4.26239 16.497 4.46927C16.497 5.49627 17.133 5.91127 18.597 6.54727L19.453 6.91327C22.361 8.16027 24.002 9.43127 24.002 12.2893C24.002 15.3703 21.582 17.0583 18.331 17.0583C17.0647 17.1388 15.8021 16.8512 14.6956 16.2302C13.5891 15.6091 12.6859 14.6812 12.095 13.5583L14.874 11.9383ZM2.786 12.2383C3.324 13.1923 3.813 13.9983 4.986 13.9983C6.11 13.9983 6.82 13.5583 6.82 11.8483V0.213265H10.242V11.8963C10.242 15.4393 8.164 17.0523 5.132 17.0523C4.06099 17.1102 2.99752 16.8426 2.0815 16.2847C1.16548 15.7267 0.43982 14.9045 0 13.9263L2.786 12.2383Z" fill="#5F5F5F"/>
</svg>
