<svg width="12" height="9" viewBox="0 0 12 9" fill="none" xmlns="http://www.w3.org/2000/svg">
<path d="M11.1584 0.0550428C11.0481 0.107746 10.5252 0.632381 7.40651 3.81612L3.78362 7.51731L2.36496 6.07038C1.5841 5.27504 0.908768 4.60427 0.864215 4.58032C0.749314 4.51803 0.463235 4.51803 0.3413 4.58032C0.214675 4.645 0.116189 4.7528 0.0481866 4.90372C-0.0221607 5.05944 -0.015126 5.2439 0.0669458 5.41159C0.139638 5.56012 3.36623 8.85645 3.51162 8.93071C3.57024 8.95946 3.67576 8.9906 3.7508 8.9954C3.86101 9.00737 3.90556 8.99779 4.02046 8.94509C4.14474 8.88759 4.52227 8.51149 8.02087 4.93487C11.5218 1.36064 11.89 0.97495 11.9462 0.847984C11.9978 0.7306 12.0072 0.685084 11.9955 0.570095C11.9674 0.253877 11.7399 0.0239001 11.428 0.00233978C11.3131 -0.004847 11.2639 0.00233978 11.1584 0.0550428Z" fill="#F65D25"/>
</svg>
