<svg width="22" height="23" viewBox="0 0 22 23" fill="none" xmlns="http://www.w3.org/2000/svg">
<path d="M9.61283 5.87578L6.40706 0.349043C6.32111 0.132475 6.09765 4.47933e-09 5.857 4.47933e-09H0.688657C0.132159 4.47933e-09 -0.193575 0.654961 0.125713 1.13113L4.90859 8.26922C6.1836 7.02578 7.80797 6.16777 9.61283 5.87578ZM11.0009 7.1875C6.82174 7.1875 3.43763 10.7251 3.43763 15.0937C3.43763 19.4624 6.82389 23 11.0009 23C15.1778 23 18.5641 19.4624 18.5641 15.0937C18.5641 10.7251 15.1821 7.1875 11.0009 7.1875ZM14.9758 14.2537L13.348 15.9158L13.7294 18.263C13.7992 18.6785 13.3749 19.0042 13.0148 18.8021L11.0002 17.6961L8.98543 18.7998C8.62553 19.002 8.20117 18.6763 8.27079 18.2607L8.65217 15.9136L7.02436 14.2515C6.72935 13.9527 6.89695 13.4316 7.30089 13.3687L9.55181 13.0262L10.5582 10.8936C10.6442 10.7026 10.8214 10.6072 10.9987 10.6072C11.176 10.6072 11.3532 10.7049 11.4392 10.8936L12.449 13.0273L14.7 13.3699C15.1091 13.4316 15.2724 13.9527 14.9758 14.2537ZM21.2757 4.47933e-09H16.1447C16.026 -1.38542e-05 15.9092 0.0321308 15.8059 0.0933012C15.7026 0.154472 15.6162 0.242581 15.5551 0.349043L12.3854 5.834C14.1903 6.126 15.8181 6.9849 17.091 8.23193L21.8738 1.09385C22.1953 0.654961 21.8687 4.47933e-09 21.2757 4.47933e-09Z" fill="#5F5F5F"/>
</svg>
