<svg width="35" height="26" viewBox="0 0 35 26" fill="none" xmlns="http://www.w3.org/2000/svg">
<path d="M16.5056 19.6563C16.4728 19.7148 16.4892 19.6888 16.5056 19.6563ZM30.128 14.9442C29.0278 14.9442 27.9429 15.1934 26.9565 15.6754C26.6338 15.0309 26.3003 14.4676 26.2456 14.0451C26.18 13.5522 26.1089 13.2598 26.1855 12.6748C26.262 12.0899 26.6065 11.2612 26.601 11.2016C26.5956 11.142 26.5245 10.8441 25.8191 10.8387C25.1137 10.8333 24.5067 10.9741 24.4356 11.1583C24.3108 11.4947 24.2139 11.8407 24.1458 12.1928C24.02 12.8265 22.7361 15.0905 22.0088 16.2712C21.7682 15.8108 21.5659 15.4046 21.5222 15.0796C21.4565 14.5867 21.3855 14.2943 21.462 13.7093C21.5386 13.1244 21.8831 12.2957 21.8776 12.2361C21.8721 12.1765 21.801 11.8786 21.0967 11.8732C20.3924 11.8678 19.7844 12.0086 19.7133 12.1928C19.6422 12.3769 19.5656 12.8102 19.4235 13.2273C19.2813 13.6443 17.5697 17.414 17.1224 18.3944C16.8928 18.8926 16.6959 19.2934 16.5537 19.5643C16.5319 19.6076 16.5155 19.6347 16.5045 19.6563C16.5209 19.6293 16.5319 19.6022 16.5319 19.613C16.4116 19.8459 16.3405 19.9759 16.3405 19.9759V19.9813C16.2475 20.1546 16.1436 20.3117 16.0944 20.3117C16.0616 20.3117 15.9905 19.8567 16.1108 19.2339C16.3678 17.9231 16.9748 15.8866 16.9693 15.8162C16.9639 15.7783 17.0842 15.4263 16.5702 15.2367C16.0725 15.058 15.8921 15.3559 15.8483 15.3559C15.8046 15.3559 15.7718 15.4642 15.7718 15.4642C15.7718 15.4642 16.3241 13.1677 14.711 13.1677C13.7048 13.1677 12.3049 14.2618 11.617 15.2529C11.1851 15.4858 10.25 15.9896 9.26571 16.5258L8.13379 17.1432C8.10645 17.1161 8.08458 17.089 8.05724 17.062C6.09962 14.993 2.48622 13.5306 2.63933 10.7521C2.69402 9.73923 3.04945 7.07986 9.58834 3.85179C14.9472 1.20867 19.231 1.93445 19.9692 3.54848C21.03 5.85038 17.678 10.1346 12.1136 10.7521C9.99189 10.985 8.87747 10.1725 8.59859 9.86922C8.30878 9.54966 8.26503 9.53341 8.15567 9.59299C7.97522 9.69048 8.09005 9.97212 8.15567 10.14C8.31971 10.5679 9.00324 11.3262 10.168 11.7053C11.1905 12.0357 13.6775 12.2199 16.6839 11.0662C20.0622 9.77714 22.6924 6.18618 21.9202 3.18018C21.135 0.125427 16.0211 -0.876575 11.1861 0.82412C8.3044 1.83695 5.18861 3.42932 2.94774 5.50374C0.284721 7.97354 -0.140706 10.1238 0.0342772 11.0229C0.657653 14.213 5.09675 16.2929 6.87282 17.8311L6.62675 17.9665C5.73544 18.4052 2.35171 20.16 1.50413 22.0124C0.547196 24.1139 1.66271 25.6196 2.39436 25.8254C4.68007 26.4537 7.01937 25.3217 8.27706 23.4639C9.53475 21.6062 9.38164 19.1797 8.80201 18.0748C8.79654 18.0585 8.7856 18.0477 8.78014 18.0315C9.43629 17.6465 10.098 17.2709 10.7651 16.9049C10.5464 17.4898 10.3878 18.194 10.3058 19.2122C10.2073 20.4038 10.7049 21.9474 11.3502 22.554C11.6345 22.8194 11.9779 22.8248 12.1923 22.8248C12.9469 22.8248 13.2859 22.2074 13.6632 21.4708C14.128 20.5717 14.5382 19.5263 14.5382 19.5263C14.5382 19.5263 14.0242 22.3536 15.4295 22.3536C15.9435 22.3536 16.4575 21.6983 16.6872 21.3624V21.3679C16.6872 21.3679 16.6981 21.3462 16.7254 21.3029C16.7801 21.2216 16.8075 21.1729 16.8075 21.1729V21.1566C17.0153 20.8046 17.4691 19.9976 18.1527 18.6652C19.0385 16.9428 19.885 14.7926 19.885 14.7926C19.967 15.2649 20.0807 15.7317 20.224 16.1899C20.3771 16.7045 20.6997 17.2678 20.9568 17.8148C20.749 18.0965 20.6232 18.2589 20.6232 18.2589C20.6232 18.2633 20.6254 18.2665 20.6287 18.2698C20.4646 18.4864 20.2787 18.7193 20.0873 18.9468C19.3885 19.7701 18.5562 20.7125 18.4468 20.9833C18.3156 21.3029 18.3484 21.5412 18.6 21.7253C18.7859 21.8662 19.114 21.8878 19.4585 21.8607C20.0873 21.8174 20.5302 21.6658 20.7435 21.5683C21.1368 21.4287 21.5086 21.2354 21.8481 20.9941C22.5316 20.4958 22.9472 19.7809 22.9089 18.8385C22.887 18.3185 22.7175 17.7986 22.5097 17.3111C22.5699 17.2244 22.6355 17.1324 22.6956 17.0403C23.4072 15.9886 24.0484 14.8918 24.615 13.757C24.697 14.2293 24.8097 14.6962 24.954 15.1544C25.0853 15.5931 25.3423 16.0751 25.5774 16.5463C24.5603 17.3642 23.9315 18.312 23.7138 18.9349C23.3092 20.0885 23.6263 20.6085 24.2224 20.7277C24.4903 20.7818 24.8731 20.6573 25.1574 20.5381C25.5796 20.3984 25.9777 20.1958 26.3375 19.9369C27.021 19.4386 27.6827 18.7399 27.6378 17.7921C27.6214 17.3642 27.5011 16.9363 27.3425 16.5247C28.201 16.1672 29.3166 15.9722 30.7383 16.1347C33.783 16.4868 34.379 18.3716 34.2642 19.157C34.1494 19.9423 33.5096 20.381 33.2963 20.511C33.0831 20.641 33.0174 20.6898 33.0338 20.7872C33.0612 20.9281 33.1596 20.9226 33.3401 20.8902C33.5916 20.8468 34.9368 20.251 34.9969 18.7941C35.0844 16.9526 33.2963 14.9269 30.1302 14.9431L30.128 14.9442ZM6.65956 22.7815C5.65341 23.8702 4.24371 24.2818 3.63674 23.9352C2.98602 23.5604 3.24302 21.9582 4.48321 20.7981C5.23783 20.094 6.21117 19.444 6.85642 19.0432C7.00406 18.9566 7.21732 18.8266 7.4798 18.6695C7.50112 18.656 7.52302 18.6433 7.54541 18.6316C7.59463 18.5991 7.64931 18.572 7.70399 18.5395C8.15676 20.186 7.7204 21.6376 6.65956 22.7804V22.7815ZM14.0067 17.8311C13.6567 18.6814 12.9196 20.8479 12.4701 20.7342C12.0873 20.6367 11.8522 18.9847 12.3935 17.3599C12.6669 16.542 13.2466 15.5671 13.5911 15.1879C14.1434 14.5759 14.7503 14.3809 14.8925 14.6247C15.0839 14.9442 14.2254 17.3003 14.0067 17.8311ZM20.0764 20.7017C19.9287 20.7775 19.792 20.8262 19.7264 20.7883C19.6772 20.7612 19.7866 20.6583 19.7866 20.6583C19.7866 20.6583 20.5466 19.8513 20.8474 19.483C21.0224 19.2664 21.2247 19.0118 21.4434 18.7302C21.4434 18.7572 21.4489 18.7843 21.4489 18.8168C21.4423 19.7863 20.5018 20.4417 20.0753 20.7017H20.0764ZM24.7572 19.6455C24.6478 19.5697 24.6642 19.3151 25.0306 18.5243C25.1727 18.2156 25.5008 17.6957 26.0695 17.1974C26.1341 17.3859 26.169 17.583 26.1734 17.7823C26.168 19.001 25.2876 19.4559 24.7572 19.6455Z" fill="#5F5F5F"/>
</svg>
