<svg width="80" height="80" viewBox="0 0 80 80" fill="none" xmlns="http://www.w3.org/2000/svg">
<path d="M0 8C0 3.58172 3.58172 0 8 0H72C76.4183 0 80 3.58172 80 8V72C80 76.4183 76.4183 80 72 80H8C3.58172 80 0 76.4183 0 72V8Z" fill="url(#paint0_linear_1598_27)"/>
<path d="M26 27C26 26.4477 26.4477 26 27 26H53C53.5523 26 54 26.4477 54 27V53C54 53.5523 53.5523 54 53 54H27C26.4477 54 26 53.5523 26 53V27Z" fill="#F5DE19"/>
<path d="M44.8089 47.8749C45.0475 48.3595 45.4182 48.7668 45.8782 49.0499C46.3382 49.333 46.8688 49.4803 47.4089 49.4749C48.4989 49.4749 49.1959 48.9299 49.1959 48.1749C49.1959 47.2749 48.4799 46.9529 47.2799 46.4279L46.6219 46.1459C44.7219 45.3369 43.4619 44.3239 43.4619 42.1819C43.4619 40.2089 44.9619 38.7059 47.3149 38.7059C48.0767 38.6509 48.8377 38.8214 49.5031 39.1961C50.1686 39.5708 50.709 40.1331 51.0569 40.8129L48.9999 42.1279C48.866 41.7908 48.6327 41.5024 48.331 41.301C48.0294 41.0995 47.6736 40.9945 47.3109 40.9999C47.1527 40.9841 46.9929 41.0014 46.8417 41.0507C46.6905 41.1 46.5513 41.1803 46.4328 41.2864C46.3144 41.3925 46.2194 41.5222 46.1538 41.6671C46.0882 41.8119 46.0535 41.9689 46.0519 42.1279C46.0519 42.9169 46.5409 43.2369 47.6699 43.7279L48.3279 44.0099C50.5639 44.9689 51.8279 45.9459 51.8279 48.1429C51.8279 50.5119 49.9669 51.8099 47.4679 51.8099C46.4943 51.8719 45.5234 51.6509 44.6726 51.1734C43.8217 50.6959 43.1273 49.9824 42.6729 49.1189L44.8089 47.8749ZM35.5139 48.1029C35.9269 48.8359 36.3029 49.4559 37.2069 49.4559C38.0709 49.4559 38.6169 49.1179 38.6169 47.8029V38.8559H41.2479V47.8379C41.2479 50.5619 39.6479 51.8019 37.3189 51.8019C36.4957 51.8469 35.6781 51.6417 34.9736 51.2134C34.2692 50.785 33.7108 50.1535 33.3719 49.4019L35.5139 48.1029Z" fill="black"/>
<defs>
<linearGradient id="paint0_linear_1598_27" x1="40" y1="0" x2="40" y2="91.5" gradientUnits="userSpaceOnUse">
<stop stop-color="#2A2B2F"/>
<stop offset="1" stop-color="#15161D"/>
</linearGradient>
</defs>
</svg>
