<svg width="34" height="34" viewBox="0 0 34 34" fill="none" xmlns="http://www.w3.org/2000/svg">
<g clip-path="url(#clip0_1407_120)">
<path opacity="0.938" fill-rule="evenodd" clip-rule="evenodd" d="M33.9668 27.3262C33.9668 27.9681 33.9668 28.61 33.9668 29.252C33.824 29.627 33.5584 29.8816 33.1699 30.0156C22.3678 30.0599 11.5658 30.0599 0.763672 30.0156C0.375185 29.8816 0.10956 29.627 -0.0332031 29.252C-0.0332031 28.61 -0.0332031 27.9681 -0.0332031 27.3262C0.856129 25.6584 1.73048 23.9761 2.58984 22.2793C2.61198 16.4577 2.63412 10.6361 2.65625 4.81445C2.67486 4.34418 2.90728 4.04535 3.35352 3.91797C12.4291 3.8737 21.5045 3.8737 30.5801 3.91797C31.0263 4.04535 31.2588 4.34418 31.2773 4.81445C31.2995 10.6361 31.3216 16.4577 31.3438 22.2793C32.2031 23.9761 33.0775 25.6584 33.9668 27.3262ZM3.68555 4.94727C12.5397 4.94727 21.3939 4.94727 30.248 4.94727C30.248 10.5475 30.248 16.1478 30.248 21.748C21.3939 21.748 12.5397 21.748 3.68555 21.748C3.68555 16.1478 3.68555 10.5475 3.68555 4.94727ZM3.48633 22.8105C12.4734 22.7884 21.4604 22.8105 30.4473 22.877C31.1726 24.2611 31.8809 25.6557 32.5723 27.0605C28.9642 27.1491 25.3561 27.1491 21.748 27.0605C21.56 26.3969 21.3719 25.7328 21.1836 25.0684C21.0481 24.7114 20.7936 24.5011 20.4199 24.4375C18.1178 24.3932 15.8158 24.3932 13.5137 24.4375C13.14 24.5011 12.8855 24.7114 12.75 25.0684C12.5617 25.7328 12.3736 26.3969 12.1855 27.0605C8.5775 27.1491 4.9694 27.1491 1.36133 27.0605C2.07142 25.6404 2.77976 24.2237 3.48633 22.8105ZM13.7129 25.4668C15.8822 25.4668 18.0514 25.4668 20.2207 25.4668C20.343 26.0225 20.4758 26.5759 20.6191 27.127C18.1842 27.127 15.7494 27.127 13.3145 27.127C13.4578 26.5759 13.5906 26.0225 13.7129 25.4668ZM0.962891 28.1895C11.6322 28.1895 22.3014 28.1895 32.9707 28.1895C32.9879 28.4378 32.9658 28.6813 32.9043 28.9199C22.2793 29.0084 11.6543 29.0084 1.0293 28.9199C0.967811 28.6813 0.945678 28.4378 0.962891 28.1895Z" fill="white"/>
<path opacity="0.935" fill-rule="evenodd" clip-rule="evenodd" d="M5.21289 5.94336C13.0488 5.93229 20.8848 5.94336 28.7207 5.97656C29.0158 6.11673 29.1818 6.34915 29.2188 6.67383C29.263 8.4668 29.263 10.2598 29.2188 12.0527C29.1215 12.4613 28.8669 12.6052 28.4551 12.4844C28.3555 12.4291 28.278 12.3516 28.2227 12.252C28.1895 10.5034 28.1784 8.75467 28.1895 7.00586C20.7077 7.00586 13.2259 7.00586 5.74414 7.00586C5.75521 8.75467 5.74414 10.5034 5.71094 12.252C5.54111 12.4985 5.30868 12.5759 5.01367 12.4844C4.8414 12.3955 4.74179 12.2516 4.71485 12.0527C4.67057 10.2598 4.67057 8.4668 4.71485 6.67383C4.76557 6.34727 4.93159 6.10378 5.21289 5.94336Z" fill="white"/>
<path opacity="0.935" fill-rule="evenodd" clip-rule="evenodd" d="M5.14649 14.1113C5.37486 14.1172 5.56301 14.2058 5.71094 14.377C5.74414 16.1477 5.75521 17.9185 5.74414 19.6895C13.2259 19.6895 20.7077 19.6895 28.1895 19.6895C28.1784 17.9185 28.1895 16.1477 28.2227 14.377C28.5326 14.0228 28.8424 14.0228 29.1523 14.377C29.1745 14.4655 29.1966 14.5541 29.2188 14.6426C29.263 16.4134 29.263 18.1842 29.2188 19.9551C29.1844 20.2564 29.0405 20.4888 28.7871 20.6523C20.9983 20.7625 13.2066 20.7846 5.41211 20.7188C4.97476 20.6523 4.74234 20.3978 4.71485 19.9551C4.67057 18.1842 4.67057 16.4134 4.71485 14.6426C4.75294 14.3727 4.89681 14.1956 5.14649 14.1113Z" fill="#F35D25"/>
</g>
<defs>
<clipPath id="clip0_1407_120">
<rect width="34" height="34" fill="white"/>
</clipPath>
</defs>
</svg>
