<svg width="31" height="17" viewBox="0 0 31 17" fill="none" xmlns="http://www.w3.org/2000/svg">
<path d="M9.40345 0.000279114C8.69234 -0.00712988 7.9874 0.133037 7.33298 0.411962C6.67855 0.690887 6.08881 1.10253 5.60085 1.621H5.59827C5.52852 1.61712 5.46006 1.61841 5.38902 1.61841C4.40283 1.62322 3.43666 1.89775 2.5947 2.41239C1.75274 2.92704 1.06693 3.66227 0.611234 4.53881C0.213408 5.31552 0.0648692 6.14918 0.01837 6.99837C-0.0229625 7.76084 0.01837 8.53366 0.01837 9.28965V16.6062H4.11288C4.11288 16.6062 4.11546 13.0023 4.11288 9.90324C4.11159 7.8178 4.09738 5.95889 4.11288 5.57701C4.18521 3.77247 4.67733 2.59317 5.59568 1.62877C8.64267 1.63006 10.615 3.71033 10.7235 7.02297C10.7493 7.78414 10.7571 11.8515 10.7571 11.8515V16.6062H14.849V10.179C14.849 8.23722 14.8658 6.55436 14.7302 5.39578C14.353 2.15951 12.3794 0.000279114 9.40215 0.000279114H9.40345ZM20.2403 0.388631L16.151 0.393809V6.82103C16.151 8.76408 16.1342 10.4456 16.2698 11.6042C16.647 14.8405 18.6206 16.9997 21.5966 16.9997C22.3077 17.0071 23.0126 16.867 23.667 16.588C24.3214 16.3091 24.9112 15.8975 25.3992 15.379H25.4017C25.4715 15.3829 25.5425 15.3816 25.6136 15.3816C27.6066 15.3816 29.4756 14.2385 30.3888 12.4625C30.7879 11.6858 30.9351 10.8508 30.9816 10.0029C31.023 9.23916 30.9816 8.46634 30.9816 7.71165V0.393809H26.8871C26.8871 0.393809 26.8845 3.99771 26.8871 7.09676C26.8897 9.18221 26.9026 11.0411 26.8871 11.423C26.8148 13.2262 26.3227 14.4068 25.4043 15.3712C22.3573 15.3699 20.385 13.2884 20.2765 9.97703C20.2453 8.36644 20.2332 6.75553 20.2403 5.14464V0.388631Z" fill="#5F5F5F"/>
</svg>
