<svg width="30" height="30" viewBox="0 0 30 30" fill="none" xmlns="http://www.w3.org/2000/svg">
<g clip-path="url(#clip0_1407_49)">
<path d="M3.98438 2.88287C3.53906 3.05279 3.04688 3.55083 2.88281 4.00201C2.75391 4.33599 2.75391 4.38873 2.75391 8.11529V11.8829L2.93555 12.0645C3.23438 12.3692 3.79102 12.2989 3.99609 11.9356C4.05469 11.836 4.07813 10.9336 4.10156 8.13287L4.13086 4.45318L4.29492 4.29498L4.45313 4.13091L16.2773 4.11333C24.8555 4.10162 28.1367 4.11919 28.2539 4.16607C28.3418 4.20123 28.459 4.30083 28.5176 4.38873C28.6172 4.53521 28.623 4.96294 28.6406 12.8204C28.6465 18.4102 28.6348 21.1758 28.5938 21.3282C28.5586 21.4688 28.4648 21.6036 28.3652 21.6739C28.1953 21.7969 28.1426 21.7969 19.7871 21.8086L11.373 21.8262L11.209 21.9493C11.1211 22.0137 11.0098 22.1719 10.9629 22.3008C10.8926 22.5001 10.8984 22.5586 10.9746 22.7461C11.127 23.1153 11.2852 23.1739 12.1699 23.1915L12.9492 23.2149V24.3047C12.9492 25.295 12.9375 25.418 12.832 25.5938C12.6855 25.834 12.5156 25.8985 12.0176 25.8985C11.7949 25.8985 11.5371 25.9161 11.4316 25.9336C11.0391 26.0157 10.8164 26.461 10.9805 26.8536C11.1504 27.2754 10.7754 27.2461 16.3828 27.2461H21.4336L21.6152 27.0645C21.7676 26.9122 21.7969 26.8418 21.7969 26.6075C21.7969 26.086 21.5098 25.8985 20.7012 25.8985C20.2207 25.8985 20.0273 25.8282 19.8809 25.6114C19.793 25.4825 19.7695 25.2891 19.7578 24.334L19.7344 23.209L24.0645 23.1915L28.3887 23.1739L28.7285 23.0391C29.1563 22.8633 29.6016 22.4297 29.8125 21.9903L29.9707 21.6504L29.9883 13.1544C30 6.79693 29.9883 4.57623 29.9355 4.33599C29.8008 3.70904 29.4551 3.25201 28.875 2.94732L28.5645 2.78326L16.4355 2.77154L4.30664 2.75982L3.98438 2.88287ZM18.416 24.4161C18.4277 25.0899 18.4629 25.6934 18.4863 25.7637L18.5273 25.8985H16.3594H14.1855L14.2441 25.711C14.2734 25.6055 14.2969 24.9961 14.2969 24.3633V23.2032H16.3418H18.3867L18.416 24.4161Z" fill="white"/>
<path d="M1.28326 13.7871C0.67388 14.0391 0.246146 14.5195 0.0879429 15.123C-0.035104 15.5742 -0.0409633 25.3008 0.0820835 25.752C0.240287 26.3672 0.597709 26.7949 1.16607 27.0645L1.49419 27.2168H4.77544H8.05669L8.39068 27.0586C8.75396 26.8887 9.1524 26.5195 9.31646 26.1914C9.53911 25.7461 9.55083 25.5059 9.55083 20.4316C9.55083 16.248 9.53911 15.4395 9.46294 15.1582C9.3106 14.5605 8.92974 14.0977 8.37896 13.834L8.05669 13.6816L4.83404 13.6699L1.61138 13.6523L1.28326 13.7871ZM7.82232 15.0879C8.19146 15.2695 8.17388 15.0059 8.17388 20.4492C8.17388 25.8633 8.1856 25.6348 7.8399 25.8164C7.60552 25.9395 1.94536 25.9395 1.71099 25.8164C1.36529 25.6348 1.37701 25.8633 1.37701 20.4492C1.37701 15.0234 1.35943 15.2695 1.72271 15.0938C1.9981 14.959 7.53521 14.9531 7.82232 15.0879Z" fill="#F65D25"/>
<path d="M4.58792 23.8887C4.51761 23.9004 4.37699 24.0059 4.27152 24.1231C4.10745 24.3106 4.08988 24.3633 4.11917 24.6036C4.19534 25.295 5.12113 25.4297 5.39066 24.7911C5.48441 24.5626 5.42581 24.252 5.25589 24.0938C5.13284 23.9766 4.83988 23.836 4.75784 23.8536C4.73441 23.8594 4.65824 23.877 4.58792 23.8887Z" fill="#F65D25"/>
<path d="M11.1973 17.8477C10.7403 18.17 10.8927 18.9551 11.4317 19.0665C11.5372 19.084 15.0001 19.1016 19.1427 19.1016C27.2462 19.1016 26.9298 19.1133 27.1524 18.8028C27.2052 18.7208 27.2462 18.5508 27.2462 18.3926C27.2462 18.1583 27.2169 18.0821 27.0645 17.9356L26.8829 17.754H19.1075C12.0177 17.754 11.3204 17.7598 11.1973 17.8477Z" fill="white"/>
<path d="M15.9023 20.0039C15.75 20.1563 15.7031 20.25 15.7031 20.4141C15.7031 20.8418 15.9785 21.1231 16.3828 21.1113C16.6523 21.1055 16.8633 20.9531 16.9746 20.6953C17.1563 20.2559 16.8457 19.8047 16.3477 19.8047C16.1484 19.8047 16.0664 19.8399 15.9023 20.0039Z" fill="white"/>
</g>
<defs>
<clipPath id="clip0_1407_49">
<rect width="30" height="30" fill="white"/>
</clipPath>
</defs>
</svg>
