<svg width="17" height="17" viewBox="0 0 17 17" fill="none" xmlns="http://www.w3.org/2000/svg">
<path fill-rule="evenodd" clip-rule="evenodd" d="M12.395 10.1873C12.1829 10.0817 11.143 9.57314 10.9494 9.50231C10.7558 9.43218 10.6149 9.39747 10.4733 9.60855C10.3324 9.81822 9.92738 10.2928 9.80425 10.4331C9.6804 10.574 9.55727 10.591 9.34588 10.4862C9.1345 10.3799 8.45265 10.1582 7.64482 9.44139C7.01635 8.88322 6.59144 8.19402 6.46831 7.98293C6.34518 7.77256 6.45479 7.65852 6.56084 7.55368C6.65621 7.45948 6.77223 7.30789 6.87827 7.18535C6.98432 7.0621 7.0192 6.97427 7.08966 6.83331C7.16084 6.69306 7.12525 6.57052 7.07187 6.46498C7.0192 6.35944 6.59643 5.32315 6.41991 4.90169C6.24838 4.49156 6.07401 4.54752 5.94447 4.54044C5.82063 4.53477 5.6797 4.53336 5.53878 4.53336C5.39785 4.53336 5.16867 4.58577 4.97508 4.79685C4.78077 5.00723 4.23487 5.51652 4.23487 6.55281C4.23487 7.58839 4.99216 8.58926 5.09821 8.73022C5.20426 8.87047 6.58931 10.9969 8.71101 11.9085C9.21635 12.1253 9.60994 12.2549 9.9167 12.3512C10.4235 12.512 10.8847 12.4893 11.2491 12.4348C11.6548 12.3746 12.5003 11.9255 12.6768 11.4339C12.8526 10.9423 12.8526 10.5209 12.8 10.4331C12.7473 10.3452 12.6064 10.2928 12.3943 10.1873H12.395ZM8.53592 15.431H8.53308C7.27289 15.4313 6.03584 15.0941 4.95159 14.455L4.69536 14.3034L2.03202 14.999L2.74305 12.415L2.57579 12.1501C1.87127 11.034 1.49843 9.74227 1.50035 8.42422C1.50178 4.56381 4.65764 1.42307 8.53877 1.42307C10.4178 1.42307 12.1843 2.15265 13.5124 3.47582C14.1675 4.12506 14.6867 4.89713 15.04 5.74736C15.3933 6.5976 15.5737 7.50911 15.5708 8.42918C15.5694 12.2896 12.4135 15.431 8.53592 15.431ZM14.5231 2.47069C13.7389 1.6851 12.8058 1.0622 11.778 0.638095C10.7501 0.213991 9.6479 -0.00288734 8.53521 2.90257e-05C3.87045 2.90257e-05 0.0725977 3.77898 0.0711742 8.42352C0.0690127 9.90163 0.458628 11.3542 1.20071 12.6345L0 17L4.48682 15.8284C5.72801 16.5014 7.11891 16.8541 8.53236 16.8541H8.53592C13.2007 16.8541 16.9985 13.0751 17 8.42989C17.0034 7.32296 16.7863 6.22634 16.3611 5.20346C15.936 4.18058 15.3113 3.25175 14.5231 2.47069Z" fill="white"/>
</svg>
